<svg width="48" height="48" viewBox="0 0 48 48" fill="none" xmlns="http://www.w3.org/2000/svg">
<path fill-rule="evenodd" clip-rule="evenodd" d="M44 24C44 35.0457 35.0457 44 24 44C12.9543 44 4 35.0457 4 24C4 12.9543 12.9543 4 24 4C35.0457 4 44 12.9543 44 24ZM24.7167 18.7649C22.7714 19.574 18.8835 21.2487 13.0531 23.7889C12.1064 24.1654 11.6104 24.5337 11.5652 24.8939C11.4889 25.5025 12.2512 25.7422 13.2891 26.0686C13.4303 26.113 13.5766 26.159 13.7265 26.2077C14.7477 26.5397 16.1213 26.928 16.8354 26.9434C17.4832 26.9574 18.2062 26.6904 19.0044 26.1423C24.4519 22.465 27.2639 20.6064 27.4405 20.5663C27.565 20.538 27.7376 20.5025 27.8546 20.6064C27.9715 20.7104 27.96 20.9072 27.9476 20.96C27.8721 21.2819 24.8802 24.0635 23.3318 25.503C22.8491 25.9517 22.5068 26.2701 22.4368 26.3428C22.28 26.5056 22.1202 26.6597 21.9666 26.8077C21.0179 27.7222 20.3065 28.4081 22.006 29.528C22.8227 30.0662 23.4762 30.5113 24.1282 30.9553C24.8402 31.4402 25.5504 31.9238 26.4693 32.5261C26.7034 32.6796 26.927 32.839 27.1448 32.9942C27.9734 33.585 28.7179 34.1157 29.6376 34.0311C30.172 33.9819 30.7241 33.4794 31.0044 31.9806C31.667 28.4386 32.9693 20.7641 33.2703 17.6016C33.2967 17.3246 33.2635 16.97 33.2369 16.8143C33.2102 16.6586 33.1546 16.4369 32.9522 16.2727C32.7126 16.0782 32.3427 16.0372 32.1772 16.0402C31.425 16.0534 30.2709 16.4547 24.7167 18.7649Z" fill="#0094FF"/>
</svg>
