<svg width="41" height="41" viewBox="0 0 41 41" fill="none" xmlns="http://www.w3.org/2000/svg">
<path d="M19.711 15.1402C20.5281 14.6684 21.8528 14.6684 22.6699 15.1402L27.4482 17.899C28.2653 18.3707 28.2653 19.1356 27.4482 19.6073L22.6699 22.3661C21.8528 22.8378 20.5281 22.8378 19.711 22.3661L14.9326 19.6073C14.1155 19.1356 14.1155 18.3707 14.9326 17.899L19.711 15.1402Z" fill="#BDCBFD"/>
<rect width="5.36053" height="5.36053" transform="matrix(0.866025 0.5 0 1 15 19.6466)" fill="#93AAFC"/>
<rect width="5.36053" height="5.36053" transform="matrix(0.866025 -0.5 0 1 22.7378 22.3268)" fill="#6580E1"/>
<path d="M14.3594 18.7531C14.3594 19.102 14.6043 19.4179 15.0004 19.6466V25.0071C14.6043 24.7784 14.3594 24.4626 14.3594 24.1137V18.7531Z" fill="#93AAFC"/>
<path d="M19.6431 22.3268C20.4977 22.8202 21.8833 22.8202 22.738 22.3268V27.6874C21.8833 28.1808 20.4977 28.1808 19.6431 27.6874V22.3268Z" fill="#6580E1"/>
<path d="M28.0213 18.7531C28.0213 19.102 27.7764 19.4179 27.3804 19.6466V25.0071C27.7764 24.7784 28.0213 24.4626 28.0213 24.1137V18.7531Z" fill="#6580E1"/>
<path d="M9.21244 21.3543C10.0295 20.8826 11.3543 20.8826 12.1714 21.3543L16.9497 24.1131C17.7668 24.5848 17.7668 25.3497 16.9497 25.8214L12.1714 28.5802C11.3543 29.0519 10.0295 29.0519 9.21243 28.5802L4.43409 25.8214C3.61701 25.3497 3.61701 24.5848 4.43409 24.1131L9.21244 21.3543Z" fill="white"/>
<rect width="5.36053" height="5.36053" transform="matrix(0.866025 0.5 0 1 4.50146 25.8607)" fill="#93AAFC"/>
<rect width="5.36053" height="5.36053" transform="matrix(0.866025 -0.5 0 1 12.2393 28.5409)" fill="#6580E1"/>
<path d="M3.86084 24.9673C3.86084 25.3162 4.10579 25.632 4.50182 25.8607V31.2212C4.10579 30.9926 3.86084 30.6767 3.86084 30.3278V24.9673Z" fill="#93AAFC"/>
<path d="M9.14453 28.5409C9.99917 29.0344 11.3848 29.0344 12.2394 28.5409V33.9015C11.3848 34.3949 9.99917 34.3949 9.14453 33.9015V28.5409Z" fill="#6580E1"/>
<path d="M17.5228 24.9673C17.5228 25.3162 17.2779 25.632 16.8818 25.8607V31.2212C17.2779 30.9926 17.5228 30.6767 17.5228 30.3278V24.9673Z" fill="#6580E1"/>
<path d="M28.8291 21.3543C29.6462 20.8826 30.971 20.8826 31.7881 21.3543L36.5664 24.1131C37.3835 24.5848 37.3835 25.3497 36.5664 25.8214L31.7881 28.5802C30.971 29.0519 29.6462 29.0519 28.8291 28.5802L24.0508 25.8214C23.2337 25.3497 23.2337 24.5848 24.0508 24.1131L28.8291 21.3543Z" fill="white"/>
<rect width="5.36053" height="5.36053" transform="matrix(0.866025 0.5 0 1 24.1191 25.8607)" fill="#93AAFC"/>
<rect width="5.36053" height="5.36053" transform="matrix(0.866025 -0.5 0 1 31.856 28.5409)" fill="#6580E1"/>
<path d="M23.4775 24.9673C23.4775 25.3162 23.7225 25.632 24.1185 25.8607V31.2212C23.7225 30.9926 23.4775 30.6767 23.4775 30.3278V24.9673Z" fill="#93AAFC"/>
<path d="M28.7612 28.5409C29.6159 29.0344 31.0015 29.0344 31.8561 28.5409V33.9015C31.0015 34.3949 29.6159 34.3949 28.7612 33.9015V28.5409Z" fill="#6580E1"/>
<path d="M37.1395 24.9673C37.1395 25.3162 36.8946 25.632 36.4985 25.8607V31.2212C36.8946 30.9926 37.1395 30.6767 37.1395 30.3278V24.9673Z" fill="#6580E1"/>
<path d="M18.3306 27.5684C19.1477 27.0967 20.4724 27.0967 21.2895 27.5684L26.0679 30.3272C26.8849 30.7989 26.8849 31.5638 26.0679 32.0355L21.2895 34.7943C20.4724 35.2661 19.1477 35.2661 18.3306 34.7943L13.5523 32.0355C12.7352 31.5638 12.7352 30.7989 13.5523 30.3272L18.3306 27.5684Z" fill="white"/>
<rect width="5.36053" height="5.36053" transform="matrix(0.866025 0.5 0 1 13.6196 32.0748)" fill="#93AAFC"/>
<rect width="5.36053" height="5.36053" transform="matrix(0.866025 -0.5 0 1 21.3574 34.7551)" fill="#6580E1"/>
<path d="M12.979 31.1814C12.979 31.5303 13.224 31.8461 13.62 32.0748V37.4353C13.224 37.2067 12.979 36.8908 12.979 36.5419V31.1814Z" fill="#93AAFC"/>
<path d="M18.2627 34.7551C19.1173 35.2485 20.503 35.2485 21.3576 34.7551V40.1156C20.503 40.609 19.1173 40.609 18.2627 40.1156V34.7551Z" fill="#6580E1"/>
<path d="M26.641 31.1814C26.641 31.5303 26.396 31.8461 26 32.0748V37.4353C26.396 37.2067 26.641 36.8908 26.641 36.5419V31.1814Z" fill="#6580E1"/>
<path d="M19.711 8.25422C20.5281 7.78248 21.8528 7.78248 22.6699 8.25422L27.4482 11.013C28.2653 11.4847 28.2653 12.2496 27.4482 12.7213L22.6699 15.4801C21.8528 15.9519 20.5281 15.9519 19.711 15.4801L14.9326 12.7213C14.1155 12.2496 14.1155 11.4847 14.9326 11.013L19.711 8.25422Z" fill="white"/>
<rect width="5.36053" height="5.36053" transform="matrix(0.866025 0.5 0 1 15 12.7606)" fill="#93DEFC"/>
<rect width="5.36053" height="5.36053" transform="matrix(0.866025 -0.5 0 1 22.7378 15.4409)" fill="#65BEE1"/>
<path d="M14.3594 11.8672C14.3594 12.2161 14.6043 12.5319 15.0004 12.7606V18.1211C14.6043 17.8925 14.3594 17.5766 14.3594 17.2277V11.8672Z" fill="#93DEFC"/>
<path d="M19.6431 15.4409C20.4977 15.9343 21.8833 15.9343 22.738 15.4409V20.8014C21.8833 21.2948 20.4977 21.2948 19.6431 20.8014V15.4409Z" fill="#65BEE1"/>
<path d="M28.0213 11.8672C28.0213 12.2161 27.7764 12.5319 27.3804 12.7606V18.1211C27.7764 17.8925 28.0213 17.5766 28.0213 17.2277V11.8672Z" fill="#65BEE1"/>
<path d="M9.21244 14.4683C10.0295 13.9966 11.3543 13.9966 12.1714 14.4683L16.9497 17.2271C17.7668 17.6989 17.7668 18.4637 16.9497 18.9355L12.1714 21.6942C11.3543 22.166 10.0295 22.166 9.21243 21.6942L4.43409 18.9355C3.61701 18.4637 3.61701 17.6989 4.43409 17.2271L9.21244 14.4683Z" fill="white"/>
<rect width="5.36053" height="5.36053" transform="matrix(0.866025 0.5 0 1 4.50146 18.9747)" fill="#93DEFC"/>
<rect width="5.36053" height="5.36053" transform="matrix(0.866025 -0.5 0 1 12.2393 21.655)" fill="#65BEE1"/>
<path d="M3.86084 18.0813C3.86084 18.4302 4.10579 18.7461 4.50182 18.9747V24.3352C4.10579 24.1066 3.86084 23.7907 3.86084 23.4418V18.0813Z" fill="#93DEFC"/>
<path d="M9.14453 21.655C9.99917 22.1484 11.3848 22.1484 12.2394 21.655V27.0155C11.3848 27.5089 9.99917 27.5089 9.14453 27.0155V21.655Z" fill="#65BEE1"/>
<path d="M17.5228 18.0813C17.5228 18.4302 17.2779 18.7461 16.8818 18.9747V24.3352C17.2779 24.1066 17.5228 23.7907 17.5228 23.4418V18.0813Z" fill="#65BEE1"/>
<path d="M28.8296 14.4682C29.6467 13.9964 30.9715 13.9964 31.7885 14.4682L36.5669 17.227C37.384 17.6987 37.384 18.4636 36.5669 18.9353L31.7885 21.6941C30.9715 22.1658 29.6467 22.1658 28.8296 21.6941L24.0513 18.9353C23.2342 18.4636 23.2342 17.6987 24.0513 17.227L28.8296 14.4682Z" fill="white"/>
<rect width="5.36053" height="5.36053" transform="matrix(0.866025 0.5 0 1 24.1196 18.9746)" fill="#93DEFC"/>
<rect width="5.36053" height="5.36053" transform="matrix(0.866025 -0.5 0 1 31.8564 21.6548)" fill="#65BEE1"/>
<path d="M23.478 18.0811C23.478 18.43 23.723 18.7459 24.119 18.9745V24.3351C23.723 24.1064 23.478 23.7906 23.478 23.4417V18.0811Z" fill="#93DEFC"/>
<path d="M28.7617 21.6548C29.6164 22.1482 31.002 22.1482 31.8566 21.6548V27.0153C31.002 27.5088 29.6164 27.5088 28.7617 27.0153V21.6548Z" fill="#65BEE1"/>
<path d="M37.14 18.0811C37.14 18.43 36.8951 18.7459 36.499 18.9745V24.3351C36.8951 24.1064 37.14 23.7906 37.14 23.4417V18.0811Z" fill="#65BEE1"/>
<path d="M18.3311 20.6827C19.1482 20.211 20.4729 20.211 21.29 20.6827L26.0684 23.4415C26.8854 23.9132 26.8854 24.6781 26.0683 25.1498L21.29 27.9086C20.4729 28.3803 19.1482 28.3803 18.3311 27.9086L13.5527 25.1498C12.7357 24.6781 12.7357 23.9132 13.5527 23.4415L18.3311 20.6827Z" fill="white"/>
<rect width="5.36053" height="5.36053" transform="matrix(0.866025 0.5 0 1 13.6201 25.1891)" fill="#93DEFC"/>
<rect width="5.36053" height="5.36053" transform="matrix(0.866025 -0.5 0 1 21.3579 27.8694)" fill="#65BEE1"/>
<path d="M12.9795 24.2957C12.9795 24.6446 13.2244 24.9604 13.6205 25.1891V30.5496C13.2244 30.321 12.9795 30.0051 12.9795 29.6562V24.2957Z" fill="#93DEFC"/>
<path d="M18.2632 27.8694C19.1178 28.3628 20.5035 28.3628 21.3581 27.8694V33.2299C20.5035 33.7233 19.1178 33.7233 18.2632 33.2299V27.8694Z" fill="#65BEE1"/>
<path d="M26.6415 24.2957C26.6415 24.6446 26.3965 24.9604 26.0005 25.1891V30.5496C26.3965 30.321 26.6415 30.0051 26.6415 29.6562V24.2957Z" fill="#65BEE1"/>
<path d="M19.711 1.36827C20.5281 0.896523 21.8528 0.896524 22.6699 1.36827L27.4482 4.12704C28.2653 4.59879 28.2653 5.36363 27.4482 5.83538L22.6699 8.59415C21.8528 9.0659 20.5281 9.0659 19.711 8.59415L14.9326 5.83538C14.1155 5.36363 14.1155 4.59879 14.9326 4.12704L19.711 1.36827Z" fill="#BDFDCF"/>
<rect width="5.36053" height="5.36053" transform="matrix(0.866025 0.5 0 1 15 5.87463)" fill="#93FCB1"/>
<rect width="5.36053" height="5.36053" transform="matrix(0.866025 -0.5 0 1 22.7378 8.5549)" fill="#65E188"/>
<path d="M14.3594 4.98121C14.3594 5.33011 14.6043 5.64599 15.0004 5.87463V11.2352C14.6043 11.0065 14.3594 10.6906 14.3594 10.3417V4.98121Z" fill="#93FCB1"/>
<path d="M19.6431 8.5549C20.4977 9.04832 21.8833 9.04832 22.738 8.5549V13.9154C21.8833 14.4089 20.4977 14.4089 19.6431 13.9154V8.5549Z" fill="#65E188"/>
<path d="M28.0213 4.98121C28.0213 5.33011 27.7764 5.64599 27.3804 5.87463V11.2352C27.7764 11.0065 28.0213 10.6906 28.0213 10.3417V4.98121Z" fill="#65E188"/>
<path d="M9.21244 7.5828C10.0295 7.11105 11.3543 7.11106 12.1714 7.5828L16.9497 10.3416C17.7668 10.8133 17.7668 11.5782 16.9497 12.0499L12.1714 14.8087C11.3543 15.2804 10.0295 15.2804 9.21243 14.8087L4.43409 12.0499C3.61701 11.5782 3.61701 10.8133 4.43409 10.3416L9.21244 7.5828Z" fill="#BDFDCF"/>
<rect width="5.36053" height="5.36053" transform="matrix(0.866025 0.5 0 1 4.50146 12.0892)" fill="#93FCB1"/>
<rect width="5.36053" height="5.36053" transform="matrix(0.866025 -0.5 0 1 12.2393 14.7694)" fill="#65E188"/>
<path d="M3.86084 11.1957C3.86084 11.5446 4.10579 11.8605 4.50182 12.0892V17.4497C4.10579 17.2211 3.86084 16.9052 3.86084 16.5563V11.1957Z" fill="#93FCB1"/>
<path d="M9.14453 14.7694C9.99917 15.2629 11.3848 15.2629 12.2394 14.7694V20.13C11.3848 20.6234 9.99917 20.6234 9.14453 20.13V14.7694Z" fill="#65E188"/>
<path d="M17.5228 11.1957C17.5228 11.5446 17.2779 11.8605 16.8818 12.0892V17.4497C17.2779 17.2211 17.5228 16.9052 17.5228 16.5563V11.1957Z" fill="#65E188"/>
<path d="M28.8296 7.58263C29.6467 7.11089 30.9715 7.11089 31.7885 7.58263L36.5669 10.3414C37.384 10.8132 37.384 11.578 36.5669 12.0497L31.7885 14.8085C30.9715 15.2803 29.6467 15.2803 28.8296 14.8085L24.0513 12.0497C23.2342 11.578 23.2342 10.8131 24.0513 10.3414L28.8296 7.58263Z" fill="#BDFDCF"/>
<rect width="5.36053" height="5.36053" transform="matrix(0.866026 0.5 0 1 24.1196 12.089)" fill="#93FCB1"/>
<rect width="5.36053" height="5.36053" transform="matrix(0.866025 -0.5 0 1 31.8564 14.7693)" fill="#65E188"/>
<path d="M23.478 11.1956C23.478 11.5445 23.723 11.8603 24.119 12.089V17.4495C23.723 17.2209 23.478 16.905 23.478 16.5561V11.1956Z" fill="#93FCB1"/>
<path d="M28.7617 14.7693C29.6164 15.2627 31.002 15.2627 31.8566 14.7693V20.1298C31.002 20.6232 29.6164 20.6232 28.7617 20.1298V14.7693Z" fill="#65E188"/>
<path d="M37.14 11.1956C37.14 11.5445 36.8951 11.8603 36.499 12.089V17.4495C36.8951 17.2209 37.14 16.905 37.14 16.5561V11.1956Z" fill="#65E188"/>
<path d="M18.3321 13.7968C19.1491 13.3251 20.4739 13.3251 21.291 13.7968L26.0693 16.5556C26.8864 17.0273 26.8864 17.7922 26.0693 18.2639L21.291 21.0227C20.4739 21.4944 19.1491 21.4944 18.3321 21.0227L13.5537 18.2639C12.7366 17.7922 12.7366 17.0273 13.5537 16.5556L18.3321 13.7968Z" fill="#BDFDCF"/>
<path d="M18.3311 14.7698C19.1482 14.298 20.4729 14.298 21.29 14.7698L21.426 14.8483C22.2431 15.32 22.2431 16.0849 21.426 16.5566L21.29 16.6351C20.4729 17.1069 19.1482 17.1069 18.3311 16.6351L18.1951 16.5566C17.378 16.0849 17.378 15.32 18.1951 14.8483L18.3311 14.7698Z" fill="#BDFDCF"/>
<path d="M17.6226 15.7024C17.6226 16.0514 17.8675 16.3672 18.2635 16.5959V18.3827C17.8675 18.1541 17.6226 17.8382 17.6226 17.4893V15.7024Z" fill="#93FCB1"/>
<path d="M18.2632 16.5959C19.1178 17.0893 20.5035 17.0893 21.3581 16.5959V18.3827C20.5035 18.8761 19.1178 18.8761 18.2632 18.3827V16.5959Z" fill="#65E188"/>
<path d="M21.9989 15.7024C21.9989 16.0514 21.7539 16.3672 21.3579 16.5959V18.3827C21.7539 18.1541 21.9989 17.8382 21.9989 17.4893V15.7024Z" fill="#65E188"/>
<path d="M9.2139 8.5607C10.031 8.08896 11.3557 8.08896 12.1728 8.5607L12.3088 8.63921C13.1259 9.11095 13.1259 9.8758 12.3088 10.3475L12.1728 10.4261C11.3557 10.8978 10.031 10.8978 9.2139 10.4261L9.07792 10.3475C8.26083 9.8758 8.26083 9.11096 9.07791 8.63921L9.2139 8.5607Z" fill="#BDFDCF"/>
<path d="M8.50537 9.49338C8.50537 9.84228 8.75032 10.1582 9.14635 10.3868V12.1736C8.75032 11.945 8.50537 11.6291 8.50537 11.2802V9.49338Z" fill="#93FCB1"/>
<path d="M9.146 10.3868C10.0006 10.8802 11.3863 10.8802 12.2409 10.3868V12.1736C11.3863 12.6671 10.0006 12.6671 9.146 12.1736V10.3868Z" fill="#65E188"/>
<path d="M12.8817 9.49338C12.8817 9.84228 12.6368 10.1582 12.2407 10.3868V12.1736C12.6368 11.945 12.8817 11.6291 12.8817 11.2802V9.49338Z" fill="#65E188"/>
<path d="M19.7115 2.35577C20.5285 1.88402 21.8533 1.88402 22.6704 2.35577L22.8064 2.43428C23.6234 2.90602 23.6234 3.67087 22.8064 4.14261L22.6704 4.22112C21.8533 4.69286 20.5285 4.69287 19.7115 4.22112L19.5755 4.14261C18.7584 3.67087 18.7584 2.90602 19.5755 2.43428L19.7115 2.35577Z" fill="#BDFDCF"/>
<path d="M19.0029 3.28844C19.0029 3.63735 19.2479 3.95322 19.6439 4.18187V5.96871C19.2479 5.74006 19.0029 5.42419 19.0029 5.07529V3.28844Z" fill="#93FCB1"/>
<path d="M19.6436 4.18187C20.4982 4.67529 21.8838 4.67529 22.7385 4.18187V5.96871C21.8838 6.46214 20.4982 6.46214 19.6436 5.96871V4.18187Z" fill="#65E188"/>
<path d="M23.3793 3.28844C23.3793 3.63735 23.1343 3.95322 22.7383 4.18187V5.96871C23.1343 5.74006 23.3793 5.42419 23.3793 5.07529V3.28844Z" fill="#65E188"/>
<path d="M28.8296 8.5607C29.6467 8.08896 30.9715 8.08896 31.7885 8.5607L31.9245 8.63921C32.7416 9.11095 32.7416 9.8758 31.9245 10.3475L31.7885 10.4261C30.9715 10.8978 29.6467 10.8978 28.8296 10.4261L28.6936 10.3475C27.8766 9.8758 27.8766 9.11096 28.6936 8.63921L28.8296 8.5607Z" fill="#BDFDCF"/>
<path d="M28.1211 9.49338C28.1211 9.84228 28.366 10.1582 28.7621 10.3868V12.1736C28.366 11.945 28.1211 11.6291 28.1211 11.2802V9.49338Z" fill="#93FCB1"/>
<path d="M28.7617 10.3868C29.6164 10.8802 31.002 10.8802 31.8566 10.3868V12.1736C31.002 12.6671 29.6164 12.6671 28.7617 12.1736V10.3868Z" fill="#65E188"/>
<path d="M32.4974 9.49338C32.4974 9.84228 32.2525 10.1582 31.8564 10.3868V12.1736C32.2525 11.945 32.4974 11.6291 32.4974 11.2802V9.49338Z" fill="#65E188"/>
<rect width="5.36053" height="5.36053" transform="matrix(0.866025 0.5 0 1 13.6211 18.3032)" fill="#93FCB1"/>
<rect width="5.36053" height="5.36053" transform="matrix(0.866025 -0.5 0 1 21.3589 20.9834)" fill="#65E188"/>
<path d="M12.9795 17.4097C12.9795 17.7586 13.2244 18.0745 13.6205 18.3032V23.6637C13.2244 23.4351 12.9795 23.1192 12.9795 22.7703V17.4097Z" fill="#93FCB1"/>
<path d="M18.2632 20.9834C19.1178 21.4769 20.5035 21.4769 21.3581 20.9834V26.344C20.5035 26.8374 19.1178 26.8374 18.2632 26.344V20.9834Z" fill="#65E188"/>
<path d="M26.642 17.4097C26.642 17.7586 26.397 18.0745 26.001 18.3032V23.6637C26.397 23.4351 26.642 23.1192 26.642 22.7703V17.4097Z" fill="#65E188"/>
</svg>
